<?xml version="1.0" standalone="no"?>
<!DOCTYPE svg PUBLIC "-//W3C//DTD SVG 20010904//EN"
 "http://www.w3.org/TR/2001/REC-SVG-20010904/DTD/svg10.dtd">
<svg version="1.0" xmlns="http://www.w3.org/2000/svg"
 width="160.000000pt" height="160.000000pt" viewBox="0 0 160.000000 160.000000"
 preserveAspectRatio="xMidYMid meet">
<metadata>
Created by potrace 1.14, written by Peter Selinger 2001-2017
</metadata>
<g transform="translate(0.000000,160.000000) scale(0.100000,-0.100000)"
fill="#000000" stroke="none">
<path d="M90 800 l0 -180 302 2 301 3 109 178 108 177 -410 0 -410 0 0 -180z
m181 109 l37 -42 41 42 c37 38 45 42 93 44 l53 2 3 -155 2 -155 -52 1 -53 0
-3 73 -3 73 -39 -44 -40 -43 -40 44 -40 44 0 -72 c0 -40 -4 -71 -10 -72 -5 -1
-26 -1 -45 -1 -19 0 -39 0 -45 1 -15 2 -13 298 2 303 7 3 32 3 57 2 38 -3 50
-9 82 -45z m356 42 c8 -1 12 -24 12 -72 0 -39 1 -73 3 -75 2 -2 24 30 48 71
25 41 47 75 50 76 24 4 94 3 102 -2 7 -5 4 -17 -9 -35 -37 -52 -153 -246 -153
-255 0 -5 -12 -9 -27 -10 -16 0 -45 -2 -66 -3 -21 -1 -41 3 -45 9 -4 5 -7 73
-7 150 -1 151 -1 153 53 149 15 -1 32 -3 39 -3z"/>
<path d="M910 919 c-28 -50 -26 -55 20 -51 l40 4 0 -111 c0 -61 3 -111 8 -112
43 -6 102 -2 103 6 1 5 2 55 3 110 1 99 2 100 26 102 14 0 31 1 38 2 6 1 12
12 12 25 0 13 7 29 15 36 9 7 13 15 10 18 -3 3 -62 6 -130 6 l-124 1 -21 -36z"/>
<path d="M1247 951 c-6 -2 -22 -13 -34 -24 -33 -30 -33 -114 1 -146 21 -19 35
-22 115 -23 61 -1 90 -5 88 -12 -2 -7 -44 -11 -113 -12 l-109 -1 -6 -37 c-3
-21 -1 -39 5 -44 9 -6 183 -8 269 -3 10 1 29 12 43 26 33 33 32 104 -2 141
-25 26 -25 26 -131 26 -58 0 -73 3 -73 14 0 10 8 15 23 14 12 -1 62 -2 110 -1
l88 1 -3 42 -3 42 -128 1 c-70 0 -133 -2 -140 -4z"/>
</g>
</svg>
